<?xml version="1.0" ?><svg enable-background="new 0 0 128 128" version="1.1" viewBox="0 0 128 128" xml:space="preserve" xmlns="http://www.w3.org/2000/svg" xmlns:xlink="http://www.w3.org/1999/xlink"><g id="Слой_2"/><g id="_x2B__more_4"><g id="mobile_chat"><path d="M43,19H13    c-2.2,0-4,1.8-4,4v10c0,2.2,1.8,4,4,4c0,2.8-2.2,5-5,5c3.7,0,6.9-2,8.7-5H43c2.2,0,4-1.8,4-4V23C47,20.8,45.2,19,43,19z" fill="#E3F2FD" stroke="#80DEEA" stroke-linejoin="round" stroke-miterlimit="10" stroke-width="2"/><path d="M85,41h30    c2.2,0,4,1.8,4,4v10c0,2.2-1.8,4-4,4c0,2.8,2.2,5,5,5c-3.7,0-6.9-2-8.7-5H85c-2.2,0-4-1.8-4-4V45C81,42.8,82.8,41,85,41z" fill="#E3F2FD" stroke="#80DEEA" stroke-linejoin="round" stroke-miterlimit="10" stroke-width="2"/><g><path d="M83,118H45     c-4.4,0-8-3.6-8-8V18c0-4.4,3.6-8,8-8h38c4.4,0,8,3.6,8,8v92C91,114.4,87.4,118,83,118z" fill="#FFF3E0" stroke="#FFCC80" stroke-linejoin="round" stroke-miterlimit="10" stroke-width="2"/><path d="M87,105H41c-0.6,0-1-0.4-1-1V24c0-0.6,0.4-1,1-1h46c0.6,0,1,0.4,1,1v80C88,104.6,87.6,105,87,105z" fill="#E1BEE7"/><path d="M68,111v2     c0,1.1-0.9,2-2,2h-4c-1.1,0-2-0.9-2-2v-2" fill="#FFE0B2" stroke="#FFFFFF" stroke-linejoin="round" stroke-miterlimit="10" stroke-width="2"/><path d="M60,111v-2     c0-1.1,0.9-2,2-2h4c1.1,0,2,0.9,2,2v2" fill="#FFE0B2" stroke="#FFCC80" stroke-linejoin="round" stroke-miterlimit="10" stroke-width="2"/><line fill="none" stroke="#37474F" stroke-linejoin="round" stroke-miterlimit="10" stroke-width="2" x1="60" x2="68" y1="18" y2="18"/></g><path d="M53,53H23    c-2.2,0-4,1.8-4,4v10c0,2.2,1.8,4,4,4c0,2.8-2.2,5-5,5c3.7,0,6.9-2,8.7-5H53c2.2,0,4-1.8,4-4V57C57,54.8,55.2,53,53,53z" fill="#E3F2FD" stroke="#80DEEA" stroke-linejoin="round" stroke-miterlimit="10" stroke-width="2"/><path d="M76,71h30    c2.2,0,4,1.8,4,4v10c0,2.2-1.8,4-4,4c0,2.8,2.2,5,5,5c-3.7,0-6.9-2-8.7-5H76c-2.2,0-4-1.8-4-4V75C72,72.8,73.8,71,76,71z" fill="#E3F2FD" stroke="#80DEEA" stroke-linejoin="round" stroke-miterlimit="10" stroke-width="2"/><g><ellipse cx="15.9" cy="109" fill="#FFEB3B" rx="7" ry="7" stroke="#FBC02D" stroke-linejoin="round" stroke-miterlimit="10" stroke-width="2" transform="matrix(0.9232 -0.3842 0.3842 0.9232 -40.6612 14.4754)"/><ellipse cx="12.4" cy="108.3" fill="#FBC02D" rx="1" ry="1" transform="matrix(0.9232 -0.3842 0.3842 0.9232 -40.6663 13.0627)"/><ellipse cx="17.9" cy="106" fill="#FBC02D" rx="1" ry="1" transform="matrix(0.9232 -0.3842 0.3842 0.9232 -39.3552 15.0141)"/><path d="M19.9,108.8c0.1,1.6-0.9,3.2-2.4,3.9     c-1.6,0.7-3.4,0.2-4.5-1" fill="none" stroke="#FBC02D" stroke-linejoin="round" stroke-miterlimit="10"/></g><g><ellipse cx="110" cy="25" fill="#FFEB3B" rx="7" ry="7" stroke="#FBC02D" stroke-linejoin="round" stroke-miterlimit="10" stroke-width="2" transform="matrix(0.4312 -0.9022 0.9022 0.4312 40.0063 113.4663)"/><ellipse cx="108.2" cy="21.9" fill="#FBC02D" rx="1" ry="1" transform="matrix(0.4312 -0.9022 0.9022 0.4312 41.7526 110.0402)"/><ellipse cx="113.6" cy="24.5" fill="#FBC02D" rx="1" ry="1" transform="matrix(0.4312 -0.9022 0.9022 0.4312 42.4971 116.3961)"/><path d="M112.8,27.8c-1.2,1.1-3,1.5-4.5,0.8     c-1.6-0.7-2.4-2.4-2.2-4L112.8,27.8z" fill="#FFFFFF" stroke="#FBC02D" stroke-linejoin="round" stroke-miterlimit="10"/></g></g></g><g id="icons"/></svg>