<?xml version="1.0" encoding="iso-8859-1"?>
<!-- Generator: Adobe Illustrator 19.0.0, SVG Export Plug-In . SVG Version: 6.00 Build 0)  -->
<svg version="1.1" id="Layer_1" xmlns="http://www.w3.org/2000/svg" xmlns:xlink="http://www.w3.org/1999/xlink" x="0px" y="0px"
	 viewBox="0 0 512 512" style="enable-background:new 0 0 512 512;" xml:space="preserve">
<polygon style="fill:#6C747A;" points="106.667,170.667 85.333,170.667 85.333,0 405.333,0 405.333,85.333 384,85.333 384,21.333 
	106.667,21.333 "/>
<linearGradient id="SVGID_1_" gradientUnits="userSpaceOnUse" x1="-36.4063" y1="636.9688" x2="-6.4063" y2="636.9688" gradientTransform="matrix(10.6667 0 0 -10.6667 473.6667 6826.3335)">
	<stop  offset="0" style="stop-color:#73DBE6"/>
	<stop  offset="1" style="stop-color:#CAE6B8"/>
</linearGradient>
<rect x="85.333" style="fill:url(#SVGID_1_);" width="320" height="64"/>
<g>
	<rect x="149.333" y="106.667" style="fill:#6C747A;" width="21.333" height="21.333"/>
	<rect x="149.333" y="149.333" style="fill:#6C747A;" width="21.333" height="21.333"/>
	<polygon style="fill:#6C747A;" points="256,501.333 234.667,501.333 234.667,426.667 309.333,426.667 309.333,448 256,448 	"/>
	<path style="fill:#6C747A;" d="M249.749,512H0V192h320v249.749L249.749,512z M21.333,490.667h219.584l57.749-57.749V213.333H21.333
		V490.667z"/>
</g>
<linearGradient id="SVGID_2_" gradientUnits="userSpaceOnUse" x1="-44.4063" y1="618.9688" x2="-14.4063" y2="618.9688" gradientTransform="matrix(10.6667 0 0 -10.6667 473.6667 6826.3335)">
	<stop  offset="0" style="stop-color:#FD6330"/>
	<stop  offset="1" style="stop-color:#FD8530"/>
</linearGradient>
<rect y="192" style="fill:url(#SVGID_2_);" width="320" height="64"/>
<g>
	<rect x="106.667" y="298.667" style="fill:#6C747A;" width="149.333" height="21.333"/>
	<rect x="106.667" y="341.333" style="fill:#6C747A;" width="149.333" height="21.333"/>
	<rect x="106.667" y="384" style="fill:#6C747A;" width="149.333" height="21.333"/>
	<rect x="64" y="298.667" style="fill:#6C747A;" width="21.333" height="21.333"/>
	<rect x="64" y="341.333" style="fill:#6C747A;" width="21.333" height="21.333"/>
	<rect x="64" y="384" style="fill:#6C747A;" width="21.333" height="21.333"/>
	<polygon style="fill:#6C747A;" points="448,416 426.667,416 426.667,341.333 501.333,341.333 501.333,362.667 448,362.667 	"/>
	<polygon style="fill:#6C747A;" points="441.749,426.667 341.333,426.667 341.333,405.333 432.917,405.333 490.667,347.584 
		490.667,128 213.333,128 213.333,170.667 192,170.667 192,106.667 512,106.667 512,356.416 	"/>
</g>
<linearGradient id="SVGID_3_" gradientUnits="userSpaceOnUse" x1="-26.4063" y1="626.9688" x2="3.5937" y2="626.9688" gradientTransform="matrix(10.6667 0 0 -10.6667 473.6667 6826.3335)">
	<stop  offset="0" style="stop-color:#73DBE6"/>
	<stop  offset="1" style="stop-color:#CAE6B8"/>
</linearGradient>
<rect x="192" y="106.667" style="fill:url(#SVGID_3_);" width="320" height="64"/>
<g>
	<rect x="341.333" y="213.333" style="fill:#6C747A;" width="106.667" height="21.333"/>
	<rect x="341.333" y="256" style="fill:#6C747A;" width="106.667" height="21.333"/>
	<rect x="341.333" y="298.667" style="fill:#6C747A;" width="106.667" height="21.333"/>
</g>
<linearGradient id="SVGID_4_" gradientUnits="userSpaceOnUse" x1="-36.4063" y1="636.9688" x2="-6.4063" y2="636.9688" gradientTransform="matrix(10.6667 0 0 -10.6667 473.6667 6826.3335)">
	<stop  offset="0" style="stop-color:#31646F"/>
	<stop  offset="1" style="stop-color:#566958"/>
</linearGradient>
<polygon style="fill:url(#SVGID_4_);" points="405.333,64 384,64 384,21.333 106.667,21.333 106.667,64 85.333,64 85.333,0 
	405.333,0 "/>
<linearGradient id="SVGID_5_" gradientUnits="userSpaceOnUse" x1="-44.4063" y1="618.9688" x2="-14.4063" y2="618.9688" gradientTransform="matrix(10.6667 0 0 -10.6667 473.6667 6826.3335)">
	<stop  offset="0" style="stop-color:#6B2B12"/>
	<stop  offset="1" style="stop-color:#6B3D17"/>
</linearGradient>
<polygon style="fill:url(#SVGID_5_);" points="320,256 298.667,256 298.667,213.333 21.333,213.333 21.333,256 0,256 0,192 320,192 
	"/>
<linearGradient id="SVGID_6_" gradientUnits="userSpaceOnUse" x1="-26.4063" y1="626.9688" x2="3.5937" y2="626.9688" gradientTransform="matrix(10.6667 0 0 -10.6667 473.6667 6826.3335)">
	<stop  offset="0" style="stop-color:#31646F"/>
	<stop  offset="1" style="stop-color:#566958"/>
</linearGradient>
<polygon style="fill:url(#SVGID_6_);" points="512,170.667 490.667,170.667 490.667,128 213.333,128 213.333,170.667 192,170.667 
	192,106.667 512,106.667 "/>
<g>
</g>
<g>
</g>
<g>
</g>
<g>
</g>
<g>
</g>
<g>
</g>
<g>
</g>
<g>
</g>
<g>
</g>
<g>
</g>
<g>
</g>
<g>
</g>
<g>
</g>
<g>
</g>
<g>
</g>
</svg>
