<?xml version="1.0" ?><svg enable-background="new 0 0 64 64" version="1.1" viewBox="0 0 64 64" xml:space="preserve" xmlns="http://www.w3.org/2000/svg" xmlns:xlink="http://www.w3.org/1999/xlink"><g id="Layer_1"/><g id="icon"><g><g><path d="M48.199,53.608H15.768c-4.28,0-7.763-3.482-7.763-7.763L8.004,33.147c0-2.702,2.023-5.012,4.607-5.259     c1.438-0.14,2.869,0.337,3.933,1.303s1.673,2.344,1.673,3.779l0.001,8.495c0,1.064,0.865,1.93,1.93,1.93H43.83     c1.062,0,1.927-0.863,1.93-1.925l0.022-8.514c0.007-2.808,2.298-5.093,5.106-5.093c1.374,0,2.655,0.532,3.618,1.497     c0.963,0.966,1.492,2.249,1.488,3.612l-0.034,12.885C55.961,50.131,52.479,53.608,48.199,53.608z M13.113,29.864     c-0.103,0-0.207,0.005-0.311,0.015c-1.569,0.15-2.798,1.586-2.798,3.269l0.001,12.698c0,3.178,2.585,5.763,5.763,5.763h32.431     c3.178,0,5.763-2.581,5.763-5.753l0.034-12.888c0.002-0.828-0.319-1.607-0.904-2.193c-0.585-0.587-1.363-0.91-2.191-0.91     c-1.719,0-3.112,1.39-3.117,3.099l-0.022,8.513c-0.005,2.161-1.769,3.92-3.93,3.92H20.148c-2.167,0-3.93-1.763-3.93-3.93     l-0.001-8.495c0-0.873-0.371-1.711-1.019-2.3C14.621,30.146,13.889,29.864,13.113,29.864z"/></g></g><g><path d="M32.369,37.014c-1.462,0-2.835-0.569-3.867-1.603l-7.308-7.59c-0.735-0.765-1.13-1.77-1.109-2.83    c0.021-1.062,0.452-2.051,1.217-2.787c0.766-0.736,1.783-1.103,2.832-1.11c1.061,0.021,2.05,0.453,2.785,1.218l1.488,1.546v-9.493    c0-2.19,1.782-3.973,3.974-3.973c2.19,0,3.973,1.782,3.973,3.973v9.488l1.492-1.546c1.524-1.575,4.043-1.619,5.618-0.099    l0.001,0.001c1.574,1.522,1.618,4.042,0.098,5.617l-7.279,7.536C35.214,36.432,33.829,37.014,32.369,37.014z M24.055,23.094    c-0.513,0-0.996,0.194-1.367,0.552c-0.783,0.754-0.808,2.006-0.053,2.789l7.294,7.576c0.642,0.642,1.513,1.003,2.439,1.003    c0.939,0,1.799-0.364,2.487-1.053l7.267-7.523c0.756-0.782,0.733-2.034-0.048-2.791c-0.784-0.754-2.035-0.731-2.791,0.05    l-4.931,5.107V14.365c0-1.088-0.885-1.973-1.973-1.973c-1.088,0-1.974,0.885-1.974,1.973V28.82l-4.93-5.122    c-0.365-0.38-0.855-0.595-1.383-0.604C24.081,23.094,24.069,23.094,24.055,23.094z"/></g></g></svg>